<svg width="273" height="250" viewBox="0 0 273 250" fill="none" xmlns="http://www.w3.org/2000/svg">
<path d="M148 96H131V117H117V131H184V182H190V209H157V187H110V199H77V182H86V170H93V131H106V117H47V91H64V56H148V96Z" fill="white"/>
<path d="M169 184H162V189H108V198H102V208H86V198H95V188H100V184H108V178H169V184ZM184 208H169V197H177V188H184V208ZM99 126H62V122H55V116H47V108H64V116H79V107H87V116H116V100H124V71H132V116H124V122H99V126Z" fill="#E2C3CA"/>
<path d="M190 124H209V131H198V138H191V131H173V124H181V116H190V124ZM78 64H63V58H78V64ZM32 31H40V38H47V42H54V50H63V58H54V52H47V46H40V40H32V33H24V24H32V31ZM93 57H78V50H93V57Z" fill="#F9F493"/>
<path d="M227 131H234V137H242V147H234V146H227V142H205V131H209V124H227V131ZM158 130H150V124H158V130ZM144 58H150V64H158V71H132V58H133V50H144V58ZM99 50H93V42H99V50ZM116 50H107V42H116V50ZM133 50H124V42H133V50ZM107 42H99V35H107V42Z" fill="#9AFFFE"/>
<path d="M205 142H227V146H234V156H227V166H219V156H205V147H198V138H205V142ZM169 156H177V163H168V156H162V149H169V156ZM150 136H141V131H150V136ZM150 106H158V116H150V124H141V131H132V116H141V100H150V106ZM71 107H62V100H71V107ZM141 100H132V92H141V100ZM158 100H150V92H158V100ZM150 92H141V71H150V92ZM99 64H92V72H71V64H78V57H99V64ZM107 57H99V50H107V57Z" fill="#F791D9"/>
<path d="M191 138H198V147H191V217H150V198H115V208H109V218H85V208H78V198H86V208H102V198H108V189H162V198H157V208H184V138H177V131H191V138ZM86 184H78V198H70V182H78V174H86V184ZM55 122H62V126H99V122H108V132H99V166H93V174H86V166H92V132H55V123H47V116H55V122ZM227 174H219V166H227V174ZM219 166H205V156H219V166ZM234 166H227V156H234V166ZM205 156H198V147H205V156ZM242 156H234V147H242V156ZM249 147H242V137H249V147ZM132 131H141V124H150V130H158V124H173V131H158V137H150V146H141V137H124V132H115V122H124V116H132V131ZM205 138H198V131H205V138ZM242 137H234V131H242V137ZM141 136H150V131H141V136ZM227 123H234V131H227V124H190V116H227V123ZM158 124H150V116H158V124ZM181 124H173V116H181V124ZM32 40H40V46H47V52H54V58H63V64H71V72H92V64H99V57H107V50H116V42H124V50H133V58H132V64H124V58H107V64H100V72H93V80H71V88H63V92H55V100H47V116H39V99H47V91H55V84H62V77H54V64H47V54H40V48H32V41H24V33H32V40ZM141 116H132V100H141V116ZM190 116H181V107H190V116ZM166 115H158V106H166V115ZM108 88H116V101H108V110H100V101H92V88H100V80H108V88ZM158 106H150V100H158V106ZM150 100H141V92H150V100ZM100 99H108V89H100V99ZM166 99H158V92H166V99ZM141 92H132V71H141V92ZM158 92H150V85H158V92ZM158 79H150V71H158V79ZM166 71H158V64H166V71ZM158 64H150V58H158V64ZM78 58H63V50H54V42H47V38H40V31H47V35H54V41H71V50H78V58ZM150 58H144V50H150V58ZM99 57H93V50H99V57ZM93 50H78V42H93V50ZM107 50H99V42H107V50ZM144 50H133V42H144V50ZM99 42H93V35H99V42ZM116 42H107V34H116V42ZM133 42H124V34H133V42ZM40 31H32V24H40V31Z" fill="#351A34"/>
</svg>
